<svg xmlns="http://www.w3.org/2000/svg" viewBox="0 0 420 80" fill="none">
  <defs>
    <linearGradient id="nr-bg" x1="0" y1="0" x2="1" y2="1">
      <stop offset="0%" stop-color="#E8714A"/>
      <stop offset="100%" stop-color="#C45A38"/>
    </linearGradient>
  </defs>
  <!-- Icon: Rounded rect with brain -->
  <rect x="4" y="8" width="64" height="64" rx="16" fill="url(#nr-bg)"/>
  <!-- Brain icon (simplified) -->
  <g transform="translate(36, 40)" fill="none" stroke="white" stroke-width="2" stroke-linecap="round">
    <!-- Left hemisphere -->
    <path d="M-2 -14 C-12 -14 -18 -8 -18 -2 C-20 -2 -22 2 -20 6 C-22 8 -20 14 -14 14 C-12 16 -6 16 -4 14"/>
    <path d="M-2 -14 L-2 14"/>
    <path d="M-2 -4 C-10 -4 -14 -2 -14 2"/>
    <path d="M-2 4 C-8 4 -12 6 -12 10"/>
    <!-- Right hemisphere -->
    <path d="M2 -14 C12 -14 18 -8 18 -2 C20 -2 22 2 20 6 C22 8 20 14 14 14 C12 16 6 16 4 14"/>
    <path d="M2 -14 L2 14"/>
    <path d="M2 -4 C10 -4 14 -2 14 2"/>
    <path d="M2 4 C8 4 12 6 12 10"/>
  </g>
  <!-- Text: NEURAL-RED -->
  <text x="80" y="42" font-family="Montserrat, 'Arial Black', Arial, sans-serif" font-weight="800" font-size="30" letter-spacing="1">
    <tspan fill="#1F2937">NEURAL-</tspan><tspan fill="#E8714A">RED</tspan>
  </text>
  <!-- Tagline -->
  <text x="82" y="62" font-family="Inter, Arial, sans-serif" font-weight="400" font-size="11" fill="#9CA3AF" letter-spacing="2.5">THE BRAIN BEHIND THE BREACH</text>
</svg>
